<?xml version="1.0" encoding="UTF-8"?>
<svg id="Layer_1" data-name="Layer 1" xmlns="http://www.w3.org/2000/svg" viewBox="0 0 500 500">
  <defs>
    <style>
      .cls-1 {
        fill: #fff;
      }
    </style>
  </defs>
  <path class="cls-1" d="M202,0c-.93,2.14-3.38,1.93-5.03,3.47-5.82,5.45-4.16,18.78-4.98,26.02-8.68,76.6-15.24,153.34-23,230-1.46,14.49-3.31,29.05-5,43.51-3.9-3.65-4.11-13.01-4.87-18.62-5.58-41.28-10.51-82.86-16.01-123.99-1.4-10.48-2.19-35.93-5.88-44.12s-16.13-9.27-20.44-.97c-3.11,5.99-2.01,11.16-2.92,17.08-5.78,37.73-9.09,75.96-13.97,114.03-1.7,13.29-5.56-2.26-6.62-6.19-3.42-12.67-9.5-51.23-15.28-59.72-4.95-7.26-16.48-6.02-20.22,1.79-6.28,13.12-7.32,36.64-13.04,50.96-.37.93-2.8,3.76-3.24,3.76H2.5l-1.5,1.5v16.5c1.83.46,3.53.9,5.45,1.05,10.92.86,31.29,1,42.09-.01,4.92-.46,8.8-2.19,11.23-6.77,2.84-5.36,4.23-21.16,6.76-24.24,1.13-1.38,1.85-1.12,3.46-1.03l19.24,80.27c2.36,6.73,8.18,10.47,15.17,7.63,7.69-3.12,8.51-12.32,9.48-19.51,3.57-26.42,5.72-53.99,9.24-80.75.68-5.17,1.42-13.53,2.84-18.17.44-1.43-.58-1.75,2.02-1.46,3.53,24.44,6.86,49.01,10,73.51,3.89,30.28,6.84,60.84,11.02,90.98,1.02,7.34,1.85,16.89,3.22,23.78,2.04,10.21,11.5,16.18,20.13,8.6,5.56-4.88,4.84-24.66,5.64-32.36,8.46-80.97,15.44-161.91,24-243,.09-.87.84-7.54,2.98-5.5.95.91,2.39,15.07,2.64,17.66,6.77,70.25,12.26,140.58,18.37,210.84,4.49,51.63,7,103.88,13.97,155.03,6.03,8.95,11.69,10.75,19.11,2.02,3.59-4.22,4.29-17.02,4.93-23.07,9.79-93.27,15.1-187.69,23.38-280.82,2.21-24.89,3.64-50.39,6.62-75.17,1.5-12.52,4.25-3.53,4.99,3.01,9.19,80.65,14.85,161.76,23.87,242.13.92,8.17-.16,27.19,7.77,31.23,6.71,3.42,15.4-.24,17.14-7.6,9.93-60.38,13.15-123.46,23.37-183.63.42-2.49.5-5.79,2.36-7.62,1.36-.01,2.14,7.09,2.37,8.61,4.76,31.78,6.4,63.83,11.4,95.6,2.36,15.01,11.75,23.87,23.23,9.78l21-82c1.12.07,1.76-.57,2.56.58,2.42,3.49,3.89,19.29,6.72,25.13,2.16,4.46,7.16,5.93,11.67,6.33,11.4,1,32.7.97,44.14.03,2.01-.16,2.45-.14,3.41-2.07v246H0V0h202Z"/>
  <path d="M208,0c.9,2.18,3.46,1.91,5.05,3.46,5.37,5.22,4.22,20.21,4.96,27.03,11.33,104.62,17.44,210.02,27,315,1.01,11.14,1.72,22.82,3.1,33.9.25,1.98.7,5.75,2.88,6.61,1.45-6.41,2.29-13.08,2.88-19.62,10.13-111.69,17.55-224.35,28.86-336.15.77-7.6-.85-17.59,3.43-24.56,2.09-3.41,4.74-2.96,6.85-5.65h6c6.18,4.85,7.63,6.81,8.88,14.62,3.44,21.51,3.88,45.91,6.13,67.87,3.78,36.86,7.35,73.31,11,110l11,110.5c2.84,3.42,4.69-13.35,4.87-14.62,5.08-35.91,9.18-72.02,14-108,2.38-17.81,3.14-43.07,7.4-59.6,2.57-9.94,13.17-15.83,20.16-6.72,4.96,6.45,5.33,28.26,6.57,37.43,4.03,29.92,7.02,59.99,11,90,.22,1.63,1.59,10.12,2,10.51,2.05,1.92,3.41-4.84,3.71-5.78,5.95-18.88,8.26-39.34,13.76-58.24,3.69-12.69,13.21-17.54,22.72-6.68l15.19,54.81,42.6,1.9v16c-.95,1.93-1.4,1.9-3.41,2.07-11.44.94-32.74.97-44.14-.03-4.52-.4-9.52-1.87-11.67-6.33-2.82-5.84-4.29-21.64-6.72-25.13-.8-1.14-1.44-.51-2.56-.58l-21,82c-11.49,14.09-20.87,5.23-23.23-9.78-5-31.77-6.64-63.82-11.4-95.6-.23-1.52-1.02-8.62-2.37-8.61-1.85,1.84-1.94,5.14-2.36,7.62-10.22,60.17-13.44,123.25-23.37,183.63-1.74,7.36-10.43,11.02-17.14,7.6-7.94-4.04-6.86-23.06-7.77-31.23-9.01-80.36-14.67-161.48-23.87-242.13-.75-6.54-3.49-15.53-4.99-3.01-2.98,24.78-4.41,50.28-6.62,75.17-8.28,93.13-13.59,187.55-23.38,280.82-.64,6.05-1.34,18.85-4.93,23.07-7.41,8.73-13.07,6.93-19.11-2.02-6.96-51.16-9.48-103.4-13.97-155.03-6.11-70.25-11.6-140.59-18.37-210.84-.25-2.59-1.69-16.76-2.64-17.66-2.14-2.04-2.89,4.63-2.98,5.5-8.56,81.1-15.53,162.03-24,243-.8,7.7-.08,27.48-5.64,32.36-8.63,7.58-18.09,1.61-20.13-8.6-1.38-6.88-2.2-16.43-3.22-23.78-4.18-30.14-7.13-60.7-11.02-90.98-3.15-24.5-6.47-49.07-10-73.51-2.6-.29-1.58.03-2.02,1.46-1.42,4.64-2.16,13-2.84,18.17-3.52,26.77-5.67,54.34-9.24,80.75-.97,7.19-1.79,16.39-9.48,19.51-7,2.84-12.81-.9-15.17-7.63l-19.24-80.27c-1.61-.09-2.33-.35-3.46,1.03-2.53,3.08-3.92,18.88-6.76,24.24-2.42,4.58-6.3,6.31-11.23,6.77-10.8,1.01-31.17.87-42.09.01-1.93-.15-3.62-.59-5.45-1.05v-16.5l1.5-1.5h39c.45,0,2.87-2.82,3.24-3.76,5.72-14.32,6.76-37.83,13.04-50.96,3.74-7.81,15.27-9.05,20.22-1.79,5.78,8.49,11.86,47.05,15.28,59.72,1.06,3.94,4.92,19.49,6.62,6.19,4.87-38.08,8.19-76.3,13.97-114.03.91-5.92-.19-11.09,2.92-17.08,4.31-8.3,16.76-7.17,20.44.97s4.48,33.64,5.88,44.12c5.49,41.13,10.42,82.71,16.01,123.99.76,5.61.96,14.97,4.87,18.62,1.7-14.46,3.54-29.02,5-43.51,7.75-76.66,14.32-153.41,23-230,.82-7.24-.84-20.57,4.98-26.02,1.65-1.55,4.1-1.33,5.03-3.47h6Z"/>
  <path class="cls-1" d="M299,0h201v238l-42.6-1.9-15.19-54.81c-9.51-10.86-19.03-6-22.72,6.68-5.5,18.9-7.81,39.35-13.76,58.24-.29.94-1.66,7.7-3.71,5.78-.42-.39-1.79-8.87-2-10.51-3.99-30.01-6.97-60.08-11-90-1.24-9.18-1.61-30.98-6.57-37.43-6.99-9.11-17.6-3.22-20.16,6.72-4.27,16.53-5.02,41.79-7.4,59.6-4.82,35.98-8.92,72.09-14,108-.18,1.27-2.03,18.04-4.87,14.62l-11-110.5c-3.65-36.69-7.22-73.13-11-110-2.25-21.96-2.69-46.36-6.13-67.87-1.25-7.81-2.7-9.77-8.88-14.62Z"/>
  <path class="cls-1" d="M293,0c-2.11,2.7-4.76,2.25-6.85,5.65-4.28,6.98-2.66,16.96-3.43,24.56-11.31,111.81-18.73,224.47-28.86,336.15-.59,6.54-1.43,13.22-2.88,19.62-2.17-.86-2.63-4.63-2.88-6.61-1.39-11.08-2.09-22.76-3.1-33.9-9.56-104.98-15.67-210.38-27-315-.74-6.83.41-21.82-4.96-27.03-1.59-1.54-4.14-1.28-5.05-3.46h85Z"/>
</svg>